<svg width="26" height="26" viewBox="0 0 26 26" fill="none" xmlns="http://www.w3.org/2000/svg">
<path d="M13 23.8333C7.01692 23.8333 2.16667 18.9831 2.16667 13C2.16667 7.01691 7.01692 2.16666 13 2.16666C18.9831 2.16666 23.8333 7.01691 23.8333 13C23.8268 18.9804 18.9804 23.8268 13 23.8333ZM13 4.33332C8.23919 4.33453 4.37067 8.17576 4.33576 12.9364C4.30086 17.6971 8.11263 21.5947 12.8729 21.6657C17.6332 21.7367 21.5596 17.9546 21.6667 13.195V15.1266V13C21.6613 8.21575 17.7842 4.3387 13 4.33332ZM13 18.4167L7.58333 13L13 7.58332L14.5275 9.11082L11.7325 11.9167H18.4167V14.0833H11.7325L14.5275 16.8892L13 18.4167Z" fill="#2E3A59"/>
</svg>
